<svg xmlns="http://www.w3.org/2000/svg" viewBox="0 0 24 24" shape-rendering="crispEdges">
<rect width="24" height="24" fill="#2e3644"/>
<rect y="9" width="24" height="1" fill="#3a4356"/>
<rect y="3" width="24" height="1" fill="#3a4356"/>
<rect y="21" width="24" height="1" fill="#3a4356"/>
<rect y="15" width="24" height="1" fill="#3a4356"/>
<rect x="5" y="2" width="12" height="1" fill="#12141c"/>
<rect x="4" y="3" width="1" height="1" fill="#12141c"/>
<rect x="5" y="3" width="12" height="1" fill="#6b5138"/>
<rect x="17" y="3" width="1" height="1" fill="#12141c"/>
<rect x="4" y="4" width="1" height="1" fill="#12141c"/>
<rect x="5" y="4" width="12" height="1" fill="#6b5138"/>
<rect x="17" y="4" width="1" height="1" fill="#12141c"/>
<rect x="3" y="5" width="2" height="1" fill="#12141c"/>
<rect x="5" y="5" width="12" height="1" fill="#57422d"/>
<rect x="17" y="5" width="2" height="1" fill="#12141c"/>
<rect x="4" y="6" width="1" height="1" fill="#12141c"/>
<rect x="5" y="6" width="1" height="1" fill="#ad7c52"/>
<rect x="6" y="6" width="10" height="1" fill="#cf9a70"/>
<rect x="16" y="6" width="1" height="1" fill="#ad7c52"/>
<rect x="17" y="6" width="1" height="1" fill="#12141c"/>
<rect x="4" y="7" width="1" height="1" fill="#12141c"/>
<rect x="5" y="7" width="12" height="1" fill="#cf9a70"/>
<rect x="17" y="7" width="1" height="1" fill="#12141c"/>
<rect x="4" y="8" width="1" height="1" fill="#12141c"/>
<rect x="5" y="8" width="1" height="1" fill="#3a2f24"/>
<rect x="6" y="8" width="10" height="1" fill="#cf9a70"/>
<rect x="16" y="8" width="1" height="1" fill="#3a2f24"/>
<rect x="17" y="8" width="1" height="1" fill="#12141c"/>
<rect x="4" y="9" width="1" height="1" fill="#12141c"/>
<rect x="5" y="9" width="1" height="1" fill="#cf9a70"/>
<rect x="6" y="9" width="3" height="1" fill="#12141c"/>
<rect x="9" y="9" width="4" height="1" fill="#cf9a70"/>
<rect x="13" y="9" width="3" height="1" fill="#12141c"/>
<rect x="16" y="9" width="1" height="1" fill="#cf9a70"/>
<rect x="17" y="9" width="1" height="1" fill="#12141c"/>
<rect x="4" y="10" width="1" height="1" fill="#12141c"/>
<rect x="5" y="10" width="1" height="1" fill="#cf9a70"/>
<rect x="6" y="10" width="1" height="1" fill="#12141c"/>
<rect x="7" y="10" width="1" height="1" fill="#e8e4da"/>
<rect x="8" y="10" width="1" height="1" fill="#1c1e26"/>
<rect x="9" y="10" width="1" height="1" fill="#12141c"/>
<rect x="10" y="10" width="2" height="1" fill="#cf9a70"/>
<rect x="12" y="10" width="1" height="1" fill="#12141c"/>
<rect x="13" y="10" width="1" height="1" fill="#1c1e26"/>
<rect x="14" y="10" width="1" height="1" fill="#e8e4da"/>
<rect x="15" y="10" width="1" height="1" fill="#12141c"/>
<rect x="16" y="10" width="1" height="1" fill="#cf9a70"/>
<rect x="17" y="10" width="1" height="1" fill="#12141c"/>
<rect x="4" y="11" width="1" height="1" fill="#12141c"/>
<rect x="5" y="11" width="12" height="1" fill="#cf9a70"/>
<rect x="17" y="11" width="1" height="1" fill="#12141c"/>
<rect x="4" y="12" width="1" height="1" fill="#12141c"/>
<rect x="5" y="12" width="1" height="1" fill="#ad7c52"/>
<rect x="6" y="12" width="4" height="1" fill="#cf9a70"/>
<rect x="10" y="12" width="1" height="1" fill="#12141c"/>
<rect x="11" y="12" width="1" height="1" fill="#ad7c52"/>
<rect x="12" y="12" width="4" height="1" fill="#cf9a70"/>
<rect x="16" y="12" width="1" height="1" fill="#ad7c52"/>
<rect x="17" y="12" width="1" height="1" fill="#12141c"/>
<rect x="4" y="13" width="1" height="1" fill="#12141c"/>
<rect x="5" y="13" width="5" height="1" fill="#cf9a70"/>
<rect x="10" y="13" width="1" height="1" fill="#12141c"/>
<rect x="11" y="13" width="1" height="1" fill="#ad7c52"/>
<rect x="12" y="13" width="5" height="1" fill="#cf9a70"/>
<rect x="17" y="13" width="1" height="1" fill="#12141c"/>
<rect x="4" y="14" width="1" height="1" fill="#12141c"/>
<rect x="5" y="14" width="1" height="1" fill="#ad7c52"/>
<rect x="6" y="14" width="10" height="1" fill="#cf9a70"/>
<rect x="16" y="14" width="1" height="1" fill="#ad7c52"/>
<rect x="17" y="14" width="1" height="1" fill="#12141c"/>
<rect x="4" y="15" width="1" height="1" fill="#12141c"/>
<rect x="5" y="15" width="4" height="1" fill="#cf9a70"/>
<rect x="9" y="15" width="4" height="1" fill="#12141c"/>
<rect x="13" y="15" width="4" height="1" fill="#cf9a70"/>
<rect x="17" y="15" width="1" height="1" fill="#12141c"/>
<rect x="4" y="16" width="1" height="1" fill="#12141c"/>
<rect x="5" y="16" width="1" height="1" fill="#ad7c52"/>
<rect x="6" y="16" width="10" height="1" fill="#cf9a70"/>
<rect x="16" y="16" width="1" height="1" fill="#ad7c52"/>
<rect x="17" y="16" width="1" height="1" fill="#12141c"/>
<rect x="5" y="17" width="1" height="1" fill="#12141c"/>
<rect x="6" y="17" width="1" height="1" fill="#ad7c52"/>
<rect x="7" y="17" width="8" height="1" fill="#cf9a70"/>
<rect x="15" y="17" width="1" height="1" fill="#ad7c52"/>
<rect x="16" y="17" width="1" height="1" fill="#12141c"/>
<rect x="6" y="18" width="2" height="1" fill="#12141c"/>
<rect x="8" y="18" width="1" height="1" fill="#ad7c52"/>
<rect x="9" y="18" width="4" height="1" fill="#cf9a70"/>
<rect x="13" y="18" width="1" height="1" fill="#ad7c52"/>
<rect x="14" y="18" width="2" height="1" fill="#12141c"/>
<rect x="7" y="19" width="2" height="1" fill="#12141c"/>
<rect x="9" y="19" width="1" height="1" fill="#ad7c52"/>
<rect x="10" y="19" width="2" height="1" fill="#cf9a70"/>
<rect x="12" y="19" width="1" height="1" fill="#ad7c52"/>
<rect x="13" y="19" width="2" height="1" fill="#12141c"/>
<rect x="4" y="20" width="4" height="1" fill="#12141c"/>
<rect x="8" y="20" width="1" height="1" fill="#5a4f3e"/>
<rect x="9" y="20" width="1" height="1" fill="#ad7c52"/>
<rect x="10" y="20" width="2" height="1" fill="#cf9a70"/>
<rect x="12" y="20" width="1" height="1" fill="#ad7c52"/>
<rect x="13" y="20" width="1" height="1" fill="#5a4f3e"/>
<rect x="14" y="20" width="4" height="1" fill="#12141c"/>
<rect x="2" y="21" width="2" height="1" fill="#12141c"/>
<rect x="4" y="21" width="5" height="1" fill="#5a4f3e"/>
<rect x="9" y="21" width="1" height="1" fill="#12141c"/>
<rect x="10" y="21" width="2" height="1" fill="#cf9a70"/>
<rect x="12" y="21" width="1" height="1" fill="#12141c"/>
<rect x="13" y="21" width="5" height="1" fill="#5a4f3e"/>
<rect x="18" y="21" width="2" height="1" fill="#12141c"/>
<rect x="1" y="22" width="1" height="1" fill="#12141c"/>
<rect x="2" y="22" width="2" height="1" fill="#5a4f3e"/>
<rect x="4" y="22" width="1" height="1" fill="#4a4133"/>
<rect x="5" y="22" width="3" height="1" fill="#5a4f3e"/>
<rect x="8" y="22" width="1" height="1" fill="#4a4133"/>
<rect x="9" y="22" width="1" height="1" fill="#12141c"/>
<rect x="10" y="22" width="2" height="1" fill="#cf9a70"/>
<rect x="12" y="22" width="1" height="1" fill="#12141c"/>
<rect x="13" y="22" width="1" height="1" fill="#4a4133"/>
<rect x="14" y="22" width="3" height="1" fill="#5a4f3e"/>
<rect x="17" y="22" width="1" height="1" fill="#4a4133"/>
<rect x="18" y="22" width="2" height="1" fill="#5a4f3e"/>
<rect x="20" y="22" width="1" height="1" fill="#12141c"/>
<rect x="1" y="23" width="1" height="1" fill="#12141c"/>
<rect x="2" y="23" width="8" height="1" fill="#5a4f3e"/>
<rect x="10" y="23" width="4" height="1" fill="#12141c"/>
<rect x="14" y="23" width="6" height="1" fill="#5a4f3e"/>
<rect x="20" y="23" width="1" height="1" fill="#12141c"/>
</svg>
