<svg xmlns="http://www.w3.org/2000/svg" viewBox="0 0 24 24" shape-rendering="crispEdges">
<rect width="24" height="24" fill="#2e3644"/>
<rect y="9" width="24" height="1" fill="#3a4356"/>
<rect y="3" width="24" height="1" fill="#3a4356"/>
<rect y="21" width="24" height="1" fill="#3a4356"/>
<rect y="15" width="24" height="1" fill="#3a4356"/>
<rect x="5" y="3" width="12" height="1" fill="#12141c"/>
<rect x="4" y="4" width="1" height="1" fill="#12141c"/>
<rect x="5" y="4" width="12" height="1" fill="#c9a184"/>
<rect x="17" y="4" width="1" height="1" fill="#12141c"/>
<rect x="4" y="5" width="1" height="1" fill="#12141c"/>
<rect x="5" y="5" width="12" height="1" fill="#c9a184"/>
<rect x="17" y="5" width="1" height="1" fill="#12141c"/>
<rect x="4" y="6" width="1" height="1" fill="#12141c"/>
<rect x="5" y="6" width="1" height="1" fill="#b8bcc2"/>
<rect x="6" y="6" width="10" height="1" fill="#c9a184"/>
<rect x="16" y="6" width="1" height="1" fill="#b8bcc2"/>
<rect x="17" y="6" width="1" height="1" fill="#12141c"/>
<rect x="4" y="7" width="1" height="1" fill="#12141c"/>
<rect x="5" y="7" width="1" height="1" fill="#b8bcc2"/>
<rect x="6" y="7" width="10" height="1" fill="#c9a184"/>
<rect x="16" y="7" width="1" height="1" fill="#b8bcc2"/>
<rect x="17" y="7" width="1" height="1" fill="#12141c"/>
<rect x="4" y="8" width="1" height="1" fill="#12141c"/>
<rect x="5" y="8" width="1" height="1" fill="#b8bcc2"/>
<rect x="6" y="8" width="10" height="1" fill="#c9a184"/>
<rect x="16" y="8" width="1" height="1" fill="#b8bcc2"/>
<rect x="17" y="8" width="1" height="1" fill="#12141c"/>
<rect x="4" y="9" width="1" height="1" fill="#12141c"/>
<rect x="5" y="9" width="1" height="1" fill="#b8bcc2"/>
<rect x="6" y="9" width="3" height="1" fill="#c9cdd3"/>
<rect x="9" y="9" width="4" height="1" fill="#c9a184"/>
<rect x="13" y="9" width="3" height="1" fill="#c9cdd3"/>
<rect x="16" y="9" width="1" height="1" fill="#b8bcc2"/>
<rect x="17" y="9" width="1" height="1" fill="#12141c"/>
<rect x="4" y="10" width="1" height="1" fill="#12141c"/>
<rect x="5" y="10" width="1" height="1" fill="#c9a184"/>
<rect x="6" y="10" width="1" height="1" fill="#12141c"/>
<rect x="7" y="10" width="1" height="1" fill="#e6e2d8"/>
<rect x="8" y="10" width="1" height="1" fill="#23262e"/>
<rect x="9" y="10" width="1" height="1" fill="#12141c"/>
<rect x="10" y="10" width="2" height="1" fill="#c9a184"/>
<rect x="12" y="10" width="1" height="1" fill="#12141c"/>
<rect x="13" y="10" width="1" height="1" fill="#23262e"/>
<rect x="14" y="10" width="1" height="1" fill="#e6e2d8"/>
<rect x="15" y="10" width="1" height="1" fill="#12141c"/>
<rect x="16" y="10" width="1" height="1" fill="#c9a184"/>
<rect x="17" y="10" width="1" height="1" fill="#12141c"/>
<rect x="4" y="11" width="1" height="1" fill="#12141c"/>
<rect x="5" y="11" width="12" height="1" fill="#c9a184"/>
<rect x="17" y="11" width="1" height="1" fill="#12141c"/>
<rect x="4" y="12" width="1" height="1" fill="#12141c"/>
<rect x="5" y="12" width="1" height="1" fill="#a8815f"/>
<rect x="6" y="12" width="4" height="1" fill="#c9a184"/>
<rect x="10" y="12" width="1" height="1" fill="#12141c"/>
<rect x="11" y="12" width="1" height="1" fill="#a8815f"/>
<rect x="12" y="12" width="4" height="1" fill="#c9a184"/>
<rect x="16" y="12" width="1" height="1" fill="#a8815f"/>
<rect x="17" y="12" width="1" height="1" fill="#12141c"/>
<rect x="4" y="13" width="1" height="1" fill="#12141c"/>
<rect x="5" y="13" width="1" height="1" fill="#c9cdd3"/>
<rect x="6" y="13" width="4" height="1" fill="#c9a184"/>
<rect x="10" y="13" width="1" height="1" fill="#12141c"/>
<rect x="11" y="13" width="1" height="1" fill="#a8815f"/>
<rect x="12" y="13" width="4" height="1" fill="#c9a184"/>
<rect x="16" y="13" width="1" height="1" fill="#c9cdd3"/>
<rect x="17" y="13" width="1" height="1" fill="#12141c"/>
<rect x="4" y="14" width="1" height="1" fill="#12141c"/>
<rect x="5" y="14" width="2" height="1" fill="#c9cdd3"/>
<rect x="7" y="14" width="8" height="1" fill="#c9a184"/>
<rect x="15" y="14" width="2" height="1" fill="#c9cdd3"/>
<rect x="17" y="14" width="1" height="1" fill="#12141c"/>
<rect x="4" y="15" width="1" height="1" fill="#12141c"/>
<rect x="5" y="15" width="4" height="1" fill="#c9cdd3"/>
<rect x="9" y="15" width="1" height="1" fill="#12141c"/>
<rect x="10" y="15" width="2" height="1" fill="#5e3a30"/>
<rect x="12" y="15" width="1" height="1" fill="#12141c"/>
<rect x="13" y="15" width="4" height="1" fill="#c9cdd3"/>
<rect x="17" y="15" width="1" height="1" fill="#12141c"/>
<rect x="4" y="16" width="1" height="1" fill="#12141c"/>
<rect x="5" y="16" width="12" height="1" fill="#c9cdd3"/>
<rect x="17" y="16" width="1" height="1" fill="#12141c"/>
<rect x="4" y="17" width="1" height="1" fill="#12141c"/>
<rect x="5" y="17" width="1" height="1" fill="#a7abb3"/>
<rect x="6" y="17" width="10" height="1" fill="#c9cdd3"/>
<rect x="16" y="17" width="1" height="1" fill="#a7abb3"/>
<rect x="17" y="17" width="1" height="1" fill="#12141c"/>
<rect x="5" y="18" width="1" height="1" fill="#12141c"/>
<rect x="6" y="18" width="1" height="1" fill="#a7abb3"/>
<rect x="7" y="18" width="8" height="1" fill="#c9cdd3"/>
<rect x="15" y="18" width="1" height="1" fill="#a7abb3"/>
<rect x="16" y="18" width="1" height="1" fill="#12141c"/>
<rect x="6" y="19" width="1" height="1" fill="#12141c"/>
<rect x="7" y="19" width="8" height="1" fill="#c9cdd3"/>
<rect x="15" y="19" width="1" height="1" fill="#12141c"/>
<rect x="3" y="20" width="2" height="1" fill="#12141c"/>
<rect x="5" y="20" width="3" height="1" fill="#4a4437"/>
<rect x="8" y="20" width="1" height="1" fill="#12141c"/>
<rect x="9" y="20" width="4" height="1" fill="#c9cdd3"/>
<rect x="13" y="20" width="1" height="1" fill="#12141c"/>
<rect x="14" y="20" width="3" height="1" fill="#4a4437"/>
<rect x="17" y="20" width="2" height="1" fill="#12141c"/>
<rect x="2" y="21" width="1" height="1" fill="#12141c"/>
<rect x="3" y="21" width="6" height="1" fill="#4a4437"/>
<rect x="9" y="21" width="1" height="1" fill="#12141c"/>
<rect x="10" y="21" width="2" height="1" fill="#c9cdd3"/>
<rect x="12" y="21" width="1" height="1" fill="#12141c"/>
<rect x="13" y="21" width="6" height="1" fill="#4a4437"/>
<rect x="19" y="21" width="1" height="1" fill="#12141c"/>
<rect x="1" y="22" width="1" height="1" fill="#12141c"/>
<rect x="2" y="22" width="7" height="1" fill="#4a4437"/>
<rect x="9" y="22" width="1" height="1" fill="#3d382d"/>
<rect x="10" y="22" width="2" height="1" fill="#c9cdd3"/>
<rect x="12" y="22" width="1" height="1" fill="#3d382d"/>
<rect x="13" y="22" width="7" height="1" fill="#4a4437"/>
<rect x="20" y="22" width="1" height="1" fill="#12141c"/>
<rect x="1" y="23" width="1" height="1" fill="#12141c"/>
<rect x="2" y="23" width="8" height="1" fill="#4a4437"/>
<rect x="10" y="23" width="2" height="1" fill="#3d382d"/>
<rect x="12" y="23" width="8" height="1" fill="#4a4437"/>
<rect x="20" y="23" width="1" height="1" fill="#12141c"/>
</svg>
