<svg xmlns="http://www.w3.org/2000/svg" viewBox="0 0 16 16" shape-rendering="crispEdges">
<rect width="16" height="16" rx="3" fill="#2e3644"/>
<rect x="0" y="1" width="16" height="1" fill="#3a4356"/>
<rect x="5" y="2" width="6" height="1" fill="#e02222"/>
<rect x="5" y="3" width="6" height="1" fill="#e02222"/>
<rect x="3" y="4" width="3" height="1" fill="#e02222"/>
<rect x="6" y="4" width="4" height="1" fill="#7d1414"/>
<rect x="10" y="4" width="3" height="1" fill="#e02222"/>
<rect x="5" y="5" width="6" height="1" fill="#14161c"/>
<rect x="0" y="6" width="5" height="1" fill="#3a4356"/>
<rect x="5" y="6" width="6" height="1" fill="#14161c"/>
<rect x="11" y="6" width="5" height="1" fill="#3a4356"/>
<rect x="5" y="7" width="6" height="1" fill="#14161c"/>
<rect x="6" y="8" width="4" height="1" fill="#14161c"/>
<rect x="6" y="9" width="4" height="1" fill="#14161c"/>
<rect x="4" y="10" width="8" height="1" fill="#14161c"/>
<rect x="0" y="11" width="2" height="1" fill="#3a4356"/>
<rect x="3" y="11" width="10" height="1" fill="#14161c"/>
<rect x="14" y="11" width="2" height="1" fill="#3a4356"/>
<rect x="1" y="12" width="14" height="1" fill="#14161c"/>
<rect x="1" y="13" width="14" height="1" fill="#14161c"/>
<rect x="1" y="14" width="14" height="1" fill="#14161c"/>
</svg>
