<svg xmlns="http://www.w3.org/2000/svg" viewBox="0 0 16 16" shape-rendering="crispEdges">
<rect width="16" height="16" rx="3" fill="#2e3644"/>
<rect x="0" y="1" width="16" height="1" fill="#3a4356"/>
<rect x="4" y="2" width="4" height="1" fill="#e02222"/>
<rect x="3" y="3" width="1" height="1" fill="#e02222"/>
<rect x="8" y="3" width="1" height="1" fill="#e02222"/>
<rect x="2" y="4" width="1" height="1" fill="#e02222"/>
<rect x="9" y="4" width="1" height="1" fill="#e02222"/>
<rect x="2" y="5" width="1" height="1" fill="#e02222"/>
<rect x="4" y="5" width="1" height="1" fill="#8fa0c0"/>
<rect x="10" y="5" width="1" height="1" fill="#e02222"/>
<rect x="0" y="6" width="2" height="1" fill="#3a4356"/>
<rect x="2" y="6" width="1" height="1" fill="#e02222"/>
<rect x="3" y="6" width="7" height="1" fill="#3a4356"/>
<rect x="10" y="6" width="1" height="1" fill="#e02222"/>
<rect x="11" y="6" width="5" height="1" fill="#3a4356"/>
<rect x="2" y="7" width="1" height="1" fill="#e02222"/>
<rect x="9" y="7" width="1" height="1" fill="#e02222"/>
<rect x="3" y="8" width="1" height="1" fill="#e02222"/>
<rect x="8" y="8" width="1" height="1" fill="#e02222"/>
<rect x="4" y="9" width="4" height="1" fill="#e02222"/>
<rect x="7" y="10" width="2" height="1" fill="#e02222"/>
<rect x="0" y="11" width="9" height="1" fill="#3a4356"/>
<rect x="9" y="11" width="2" height="1" fill="#e02222"/>
<rect x="11" y="11" width="5" height="1" fill="#3a4356"/>
<rect x="9" y="12" width="2" height="1" fill="#e02222"/>
<rect x="10" y="13" width="2" height="1" fill="#e02222"/>
</svg>
