<svg xmlns="http://www.w3.org/2000/svg" viewBox="0 0 16 16" shape-rendering="crispEdges">
<rect width="16" height="16" rx="3" fill="#0a0a0c"/>
<rect x="2" y="4" width="12" height="1" fill="#e02222"/>
<rect x="1" y="5" width="14" height="1" fill="#e02222"/>
<rect x="1" y="6" width="2" height="1" fill="#e02222"/>
<rect x="3" y="6" width="2" height="1" fill="#0a0a0c"/>
<rect x="5" y="6" width="6" height="1" fill="#e02222"/>
<rect x="11" y="6" width="2" height="1" fill="#0a0a0c"/>
<rect x="13" y="6" width="2" height="1" fill="#e02222"/>
<rect x="1" y="7" width="2" height="1" fill="#e02222"/>
<rect x="3" y="7" width="2" height="1" fill="#0a0a0c"/>
<rect x="5" y="7" width="6" height="1" fill="#e02222"/>
<rect x="11" y="7" width="2" height="1" fill="#0a0a0c"/>
<rect x="13" y="7" width="2" height="1" fill="#e02222"/>
<rect x="2" y="8" width="5" height="1" fill="#e02222"/>
<rect x="7" y="8" width="2" height="1" fill="#7d1414"/>
<rect x="9" y="8" width="5" height="1" fill="#e02222"/>
<rect x="3" y="9" width="4" height="1" fill="#e02222"/>
<rect x="9" y="9" width="4" height="1" fill="#e02222"/>
</svg>
